<?xml version="1.0" standalone="no"?>
<!DOCTYPE svg PUBLIC "-//W3C//DTD SVG 20010904//EN"
 "http://www.w3.org/TR/2001/REC-SVG-20010904/DTD/svg10.dtd">
<svg version="1.0" xmlns="http://www.w3.org/2000/svg"
 width="512.000000pt" height="512.000000pt" viewBox="0 0 512.000000 512.000000"
 preserveAspectRatio="xMidYMid meet">

<g transform="translate(0.000000,512.000000) scale(0.100000,-0.100000)"
fill="#000000" stroke="none">
<path d="M1170 5110 c-19 -4 -53 -10 -75 -13 -22 -3 -47 -8 -55 -11 -8 -3 -26
-7 -40 -10 -103 -18 -366 -145 -460 -223 -315 -259 -493 -577 -528 -943 -13
-135 -13 -2538 -1 -2675 31 -330 163 -609 397 -841 189 -186 418 -308 682
-362 91 -19 146 -20 1460 -21 1511 -1 1443 -4 1647 64 135 45 303 133 405 212
60 46 241 241 284 305 106 158 178 340 214 538 17 99 18 178 19 1430 0 1261
-1 1330 -19 1430 -96 530 -480 953 -985 1085 -166 44 -204 45 -1590 44 -726
-1 -1336 -5 -1355 -9z m2527 -525 c422 -68 775 -371 913 -782 62 -187 63 -207
56 -1333 -6 -1088 -4 -1060 -58 -1220 -34 -104 -62 -160 -134 -271 -71 -110
-191 -239 -279 -299 -27 -19 -56 -40 -64 -47 -22 -23 -191 -100 -277 -126
-176 -56 -207 -57 -1255 -57 -590 0 -999 4 -1053 10 -458 53 -854 390 -980
835 -47 168 -48 186 -43 1280 4 1003 4 1032 25 1115 63 257 191 465 392 638
41 35 82 67 90 70 8 3 29 16 45 28 52 38 238 119 310 134 22 5 51 11 65 15 14
3 48 9 75 12 28 3 52 7 54 9 2 2 459 4 1015 4 850 0 1026 -3 1103 -15z"/>
<path d="M1550 4295 c-370 -64 -653 -342 -715 -703 -14 -78 -15 -226 -13
-1113 l4 -1024 28 -85 c99 -300 314 -508 612 -592 l79 -23 1014 -3 c1113 -3
1101 -3 1257 57 154 60 300 170 390 297 74 104 135 244 153 354 7 42 13 416
17 1030 6 873 5 975 -10 1070 -21 130 -28 153 -82 265 -118 241 -339 409 -624
472 -19 4 -485 8 -1035 9 -773 1 -1017 -2 -1075 -11z m2258 -460 c76 -32 112
-88 112 -174 0 -87 -47 -153 -124 -176 -93 -28 -193 12 -229 94 -23 53 -25
126 -4 168 46 88 152 126 245 88z m-1034 -359 c229 -37 421 -139 597 -315 141
-141 224 -278 273 -451 154 -538 -121 -1104 -635 -1309 -492 -196 -1043 -15
-1325 436 -196 313 -214 710 -48 1048 156 317 479 550 819 591 22 3 42 7 44
10 6 5 227 -2 275 -10z"/>
<path d="M2494 3189 c-87 -14 -239 -74 -312 -123 -155 -103 -264 -246 -324
-426 -29 -88 -32 -106 -32 -230 0 -143 12 -207 61 -320 74 -170 213 -313 378
-391 130 -61 190 -73 350 -73 124 1 149 4 218 28 160 54 289 141 384 259 68
84 98 141 138 261 40 121 49 207 35 321 -29 235 -160 447 -355 574 -70 46
-183 94 -250 106 -150 28 -197 30 -291 14z"/>
</g>
</svg>
