<?xml version="1.0" standalone="no"?>
<!DOCTYPE svg PUBLIC "-//W3C//DTD SVG 20010904//EN"
 "http://www.w3.org/TR/2001/REC-SVG-20010904/DTD/svg10.dtd">
<svg version="1.0" xmlns="http://www.w3.org/2000/svg"
 width="512.000000pt" height="512.000000pt" viewBox="0 0 512.000000 512.000000"
 preserveAspectRatio="xMidYMid meet">

<g transform="translate(0.000000,512.000000) scale(0.100000,-0.100000)"
fill="#000000" stroke="none">
<path d="M3435 4619 c-102 -8 -167 -24 -280 -69 -144 -57 -226 -109 -328 -209
-161 -156 -257 -337 -306 -579 -15 -71 -14 -272 1 -344 9 -43 9 -61 1 -69 -14
-14 -178 2 -343 33 -58 11 -125 24 -150 28 -77 14 -271 67 -362 99 -257 90
-610 283 -818 447 -161 127 -416 374 -468 452 -20 31 -29 28 -50 -20 -138
-310 -134 -675 10 -953 58 -113 221 -301 307 -356 40 -26 18 -43 -46 -35 -94
11 -270 59 -335 92 -49 25 -51 21 -44 -68 12 -144 64 -315 129 -423 51 -84
154 -211 209 -258 113 -96 269 -181 391 -214 75 -20 86 -28 66 -48 -23 -23
-161 -38 -301 -32 l-127 5 15 -41 c33 -94 130 -247 214 -338 35 -39 167 -142
221 -174 70 -41 164 -85 182 -85 7 0 17 -4 23 -8 5 -5 45 -17 89 -26 44 -9 99
-21 122 -27 23 -5 53 -9 67 -9 47 0 26 -24 -77 -92 -214 -140 -351 -206 -567
-271 -236 -72 -328 -87 -610 -96 -240 -7 -242 5 22 -129 255 -129 433 -189
753 -252 228 -45 311 -52 589 -51 259 0 314 5 581 51 135 22 444 108 540 150
168 72 486 250 612 342 74 53 248 205 345 300 137 135 341 398 435 563 235
410 346 730 413 1190 13 94 28 380 23 433 -8 67 2 84 74 137 37 27 97 76 132
110 71 67 301 330 301 344 0 6 -33 -3 -72 -18 -98 -38 -221 -77 -288 -91 -30
-7 -71 -16 -91 -21 -48 -12 -109 -12 -109 1 0 11 5 15 87 75 73 54 158 143
214 226 44 65 125 227 117 234 -3 3 -54 -18 -114 -45 -60 -28 -120 -56 -134
-62 -14 -6 -33 -14 -42 -19 -10 -5 -26 -9 -36 -9 -10 0 -22 -4 -27 -8 -14 -12
-91 -38 -155 -52 -30 -7 -65 -16 -78 -21 -40 -16 -53 -10 -115 48 -108 99
-184 146 -323 198 -158 59 -305 79 -489 64z"/>
</g>
</svg>
